<svg width="32" height="31" viewBox="0 0 32 31" fill="none" xmlns="http://www.w3.org/2000/svg">
<g clip-path="url(#clip0)">
<path d="M29.1182 7H26.6102V8H29.1182C29.9477 8 30.623 8.6731 30.623 9.5V23H1.53029V9.5C1.53029 8.6731 2.20554 8 3.03509 8H5.54308V7H3.03509C1.65227 7 0.5271 8.12158 0.5271 9.5V25.5C0.5271 26.8784 1.65227 28 3.03509 28H9.55586V30H7.54947V31H24.6038V30H22.5974V28H29.1182C30.501 28 31.6262 26.8784 31.6262 25.5V9.5C31.6262 8.12158 30.501 7 29.1182 7ZM21.5942 30H10.5591V28H21.5942V30ZM29.1182 27H3.03509C2.20554 27 1.53029 26.3269 1.53029 25.5V24H30.623V25.5C30.623 26.3269 29.9477 27 29.1182 27Z" fill="#219653"/>
<path d="M24.6038 25H25.607V26H24.6038V25Z" fill="#219653"/>
<path d="M26.6102 25H27.6134V26H26.6102V25Z" fill="#219653"/>
<path d="M28.6166 25H29.6198V26H28.6166V25Z" fill="#219653"/>
<path d="M22.5974 21H29.6198V22H22.5974V21Z" fill="#219653"/>
<path d="M22.5974 19H29.6198V20H22.5974V19Z" fill="#219653"/>
<path d="M23.6006 17H29.6198V18H23.6006V17Z" fill="#219653"/>
<path d="M25.607 15H29.6198V16H25.607V15Z" fill="#219653"/>
<path d="M6.54629 7.61206V9H2.53351V22H12.5655V16.6794C12.9321 16.8574 13.3103 17.0144 13.7036 17.1355L14.1827 19H17.9711L18.4502 17.1355C18.9241 16.9895 19.3821 16.801 19.8171 16.573L21.4769 17.553L24.1558 14.8831L23.1722 13.228C23.4015 12.7949 23.5906 12.3384 23.737 11.866L25.607 11.3879V7.61157L23.7365 7.13403C23.5901 6.66162 23.401 6.20508 23.1718 5.77197L24.1554 4.11694L21.4764 1.44702L19.8166 2.427C19.3821 2.19849 18.9241 2.0105 18.4497 1.8645L17.9706 0H14.1822L13.7031 1.8645C13.2292 2.0105 12.7712 2.19897 12.3362 2.427L10.6764 1.44702L7.99744 4.11694L8.98105 5.77197C8.7518 6.20508 8.56272 6.66162 8.41626 7.13403L6.54629 7.61206ZM3.5367 21V10H6.54629V11.3879L8.41675 11.8655C8.56321 12.3379 8.75229 12.7944 8.98154 13.2275L7.99793 14.8826L10.6769 17.5525L11.5623 17.03V21H3.5367ZM9.22744 7.95996L9.30361 7.67798C9.46207 7.09106 9.69425 6.53101 9.99379 6.01245L10.1403 5.75952L9.25781 4.27539L10.8358 2.70288L12.3247 3.58203L12.5789 3.43604C13.0982 3.13745 13.66 2.90601 14.2488 2.74805L14.5317 2.67212L14.961 1H17.1918L17.6211 2.67261L17.904 2.74854C18.4928 2.90649 19.0546 3.13794 19.5739 3.43652L19.8281 3.58252L21.3167 2.70361L22.8947 4.27588L22.0125 5.76001L22.159 6.01294C22.4585 6.53101 22.6907 7.09155 22.8492 7.67847L22.9254 7.96045L24.6038 8.38794V10.6116L22.9258 11.0396L22.8497 11.3215C22.6912 11.9084 22.459 12.4685 22.1595 12.9871L22.013 13.24L22.8955 14.7241L21.3175 16.2964L19.8286 15.4175L19.5744 15.5635C19.0551 15.8621 18.4933 16.0935 17.9045 16.2515L17.6216 16.3274L17.1923 18H14.9615L14.5322 16.3274L14.2493 16.2515C13.6605 16.0935 13.0987 15.8621 12.5794 15.5635L12.3252 15.4175L10.8366 16.2964L9.25854 14.7241L10.1407 13.24L9.99428 12.9871C9.69474 12.469 9.46256 11.9084 9.3041 11.3215L9.22793 11.0396L7.54948 10.6121V8.38843L9.22744 7.95996Z" fill="#219653"/>
<path d="M16.0767 15.5C19.3958 15.5 22.0958 12.8086 22.0958 9.5C22.0958 6.19141 19.3958 3.5 16.0767 3.5C12.7575 3.5 10.0575 6.19141 10.0575 9.5C10.0575 12.8086 12.7575 15.5 16.0767 15.5ZM16.0767 4.5C18.8426 4.5 21.0926 6.74292 21.0926 9.5C21.0926 12.2571 18.8426 14.5 16.0767 14.5C13.3108 14.5 11.0607 12.2571 11.0607 9.5C11.0607 6.74292 13.3108 4.5 16.0767 4.5Z" fill="#219653"/>
<path d="M16.0766 13.5C18.2892 13.5 20.0894 11.7056 20.0894 9.5C20.0894 7.29443 18.2892 5.5 16.0766 5.5C13.864 5.5 12.0638 7.29443 12.0638 9.5C12.0638 11.7056 13.864 13.5 16.0766 13.5ZM16.0766 6.5C17.7364 6.5 19.0862 7.84546 19.0862 9.5C19.0862 11.1545 17.7364 12.5 16.0766 12.5C14.4168 12.5 13.067 11.1545 13.067 9.5C13.067 7.84546 14.4168 6.5 16.0766 6.5Z" fill="#219653"/>
<path d="M14.5718 9H15.575V10H14.5718V9Z" fill="#219653"/>
<path d="M16.5782 9H17.5814V10H16.5782V9Z" fill="#219653"/>
<path d="M4.53992 11H5.54311V12H4.53992V11Z" fill="#219653"/>
<path d="M4.53992 13H6.54631V14H4.53992V13Z" fill="#219653"/>
<path d="M4.53992 15H6.54631V16H4.53992V15Z" fill="#219653"/>
<path d="M4.53992 17H8.5527V18H4.53992V17Z" fill="#219653"/>
<path d="M4.53992 19H10.5591V20H4.53992V19Z" fill="#219653"/>
</g>
<defs>
<clipPath id="clip0">
<rect width="31.099" height="31" fill="white" transform="translate(0.5271)"/>
</clipPath>
</defs>
</svg>
