<svg width="29" height="28" viewBox="0 0 29 28" fill="none" xmlns="http://www.w3.org/2000/svg">
<path d="M28.4812 21.8806C28.4625 21.857 26.629 19.5061 26.033 17.6268C25.8915 17.1793 25.7151 16.5492 25.5125 15.8277C24.543 12.3724 23.6615 9.43364 22.684 8.45923C21.6248 7.40344 17.5313 6.69899 15.8487 6.44812V2.54547C15.8486 1.14163 14.7034 0 13.295 0H3.0807C1.67232 0 0.5271 1.14163 0.5271 2.54547V20.3636C0.5271 21.7675 1.67232 22.9091 3.0807 22.9091H13.2951C13.5708 22.9091 13.8371 22.848 14.0977 22.7586C14.6536 23.2727 15.2833 23.6639 15.9434 24.0624C17.2445 24.8492 18.5905 25.6627 19.765 27.683C19.8791 27.8794 20.0898 28 20.3174 28C26.3921 28 28.5529 22.5555 28.5741 22.5002C28.6546 22.292 28.619 22.0565 28.4812 21.8806ZM3.0807 21.6364C2.37687 21.6364 1.80393 21.0652 1.80393 20.3636V2.54547C1.80393 1.84388 2.37687 1.27277 3.0807 1.27277V21.6364ZM15.8486 11.7581L17.8716 12.5651C17.9708 12.9106 18.1384 13.4699 18.3068 13.9062C18.2295 14.0429 18.1628 14.1945 18.0917 14.3561C17.9757 14.6196 17.8492 14.9074 17.6722 15.1311C17.0332 14.6771 16.3846 13.7147 15.8486 12.6922V11.7581ZM5.63425 21.6364H4.35748V1.27277H5.63425V21.6364ZM6.91108 21.6364V1.27277H13.2951C13.9989 1.27277 14.5718 1.84388 14.5718 2.54547V10.1757C13.7751 9.0103 12.4317 7.63224 11.214 7.38531C10.6031 7.25853 10.0632 7.41203 9.65171 7.82279C8.1143 9.35531 8.99462 11.9598 10.2159 13.7247C11.1934 15.1372 11.9185 16.8064 12.0214 17.8784C12.0382 18.0568 12.0457 18.2258 12.0538 18.3924C12.0936 19.2422 12.1474 20.1269 13.1618 21.6364H6.91108ZM20.674 26.7198C19.3754 24.6485 17.8461 23.7244 16.6055 22.9743C15.7351 22.4485 14.9839 21.9943 14.4496 21.2622C13.3985 19.8211 13.368 19.1649 13.3293 18.3333C13.3206 18.1463 13.3112 17.9567 13.2919 17.7579C13.1691 16.469 12.3742 14.6021 11.267 13.0026C10.2826 11.5801 9.64046 9.63433 10.5544 8.72262C10.6286 8.64805 10.7277 8.58714 10.959 8.63188C11.9596 8.83508 13.5737 10.6895 13.9796 11.6925C14.4684 12.8988 15.7913 15.7817 17.5188 16.4969C17.7151 16.5764 17.9402 16.556 18.1179 16.4385C18.7563 16.0147 19.0474 15.3516 19.2606 14.8675C19.3223 14.7283 19.4059 14.5369 19.404 14.5232C19.6653 14.343 19.7538 13.9987 19.6116 13.7153C19.4171 13.3281 19.1179 12.2922 19.0188 11.9255C18.9664 11.7322 18.8261 11.5744 18.6391 11.4999L15.8486 10.3873V7.73765C18.1687 8.09561 21.1796 8.75991 21.7812 9.35901C22.6016 10.1768 23.654 13.9285 24.283 16.1701C24.49 16.9084 24.6708 17.5528 24.8161 18.0096C25.351 19.6999 26.6938 21.6164 27.2406 22.3547C26.7375 23.3714 24.8366 26.547 20.674 26.7198Z" fill="#BCCBD7"/>
</svg>
