<svg width="31" height="30" viewBox="0 0 31 30" fill="none" xmlns="http://www.w3.org/2000/svg">
<g clip-path="url(#clip0)">
<path d="M2.33596 22.4556C2.99746 22.5806 3.68074 22.4144 4.21096 21.9996H4.49096C4.55546 21.9996 4.53596 21.9026 4.53596 23.9996C4.53596 25.1042 5.4314 25.9996 6.53597 25.9996H18.991C19.0505 25.9996 19.036 26.0496 19.036 26.3241C18.7178 26.7318 18.5422 27.2325 18.536 27.7496C18.5322 28.9075 19.4079 29.8792 20.5599 29.9955C21.7119 30.1118 22.7641 29.3349 22.992 28.1996C23.1163 27.5381 22.9502 26.8551 22.536 26.3246V26.0446C22.536 25.9801 22.439 25.9996 24.536 25.9996C25.6406 25.9996 26.536 25.1042 26.536 23.9996V11.5446C26.536 11.4851 26.586 11.4996 26.858 11.4996C27.3903 11.9144 28.0753 12.0804 28.7385 11.9551C29.6471 11.7704 30.3493 11.0473 30.5073 10.1337C30.6653 9.22004 30.2467 8.30306 29.4529 7.82393C28.6592 7.34481 27.6528 7.40165 26.918 7.96712C26.8585 8.01162 26.8875 7.99962 26.581 7.99962C26.5165 7.99962 26.536 8.09662 26.536 5.99962C26.536 4.89505 25.6406 3.99962 24.536 3.99962C11.292 3.99962 12.036 4.02612 12.036 3.95462C12.036 3.64712 12.026 3.67412 12.0655 3.62212C12.6329 2.8879 12.6914 1.88062 12.2128 1.08564C11.7342 0.290663 10.8166 -0.128934 9.90218 0.0290345C8.98778 0.187003 8.26414 0.890131 8.07997 1.79962C7.95566 2.4611 8.12177 3.1441 8.53597 3.67462V3.95462C8.53597 4.01912 8.63297 3.99962 6.53597 3.99962C5.4314 3.99962 4.53596 4.89505 4.53596 5.99962V18.4546C4.53596 18.5141 4.48596 18.4996 4.21146 18.4996C3.80381 18.1815 3.30304 18.0058 2.78596 17.9996C1.62809 17.9959 0.65642 18.8715 0.54008 20.0235C0.42374 21.1756 1.20072 22.2278 2.33596 22.4556ZM24.536 24.9996H22.581C22.0041 25.0002 21.5365 25.4677 21.536 26.0446V26.3246C21.5401 26.5672 21.6245 26.8016 21.776 26.9911C22.1096 27.4239 22.1234 28.0233 21.8101 28.471C21.4967 28.9187 20.9289 29.111 20.408 28.9458C19.8871 28.7805 19.5339 28.2961 19.536 27.7496C19.536 27.0436 20.036 26.9496 20.036 26.3246V26.0446C20.0352 25.4678 19.5678 25.0005 18.991 24.9996H16.036V22.0896C16.0351 21.488 15.5476 21.0004 14.946 20.9996H14.726C14.475 21.0035 14.2324 21.0904 14.036 21.2466C13.4909 21.6414 12.7327 21.5437 12.3055 21.0236C11.9221 20.5287 11.964 19.8264 12.4035 19.3806C12.843 18.9348 13.5446 18.8828 14.045 19.2591C14.3168 19.4606 14.657 19.547 14.992 19.4996C15.5682 19.4988 16.0351 19.0319 16.036 18.4556V15.4996H18.992C19.0515 15.4996 19.036 15.5496 19.036 15.8236C18.6159 16.3523 18.4494 17.0388 18.5805 17.7011C18.8095 18.8354 19.8615 19.6111 21.0128 19.4944C22.1641 19.3778 23.0392 18.4068 23.036 17.2496C23.0214 16.7296 22.8468 16.2268 22.536 15.8096V15.5896C22.5363 15.54 22.5764 15.4999 22.626 15.4996H25.536V23.9996C25.536 24.5519 25.0883 24.9996 24.536 24.9996ZM25.536 5.99962V7.95462C25.5365 8.53153 26.0041 8.99907 26.581 8.99962H26.861C27.1041 8.99641 27.3392 8.91172 27.5285 8.75912C28.043 8.3631 28.775 8.4269 29.2132 8.90596C29.6515 9.38501 29.65 10.1198 29.2098 10.5971C28.7697 11.0744 28.0374 11.1352 27.5245 10.7371C27.2526 10.5388 26.9144 10.4537 26.581 10.4996C26.0041 10.5002 25.5365 10.9677 25.536 11.5446V14.4996H22.626C22.0243 14.5004 21.5368 14.988 21.536 15.5896V15.8096C21.5399 16.0606 21.6267 16.3032 21.783 16.4996C22.1733 17.016 22.1048 17.7449 21.6253 18.1795C21.1457 18.6142 20.4136 18.6109 19.938 18.1719C19.4623 17.7329 19.4005 17.0034 19.7955 16.4906C19.997 16.2188 20.0834 15.8786 20.036 15.5436C20.0352 14.9674 19.5682 14.5004 18.992 14.4996H16.036V11.5436C16.036 11.4841 16.086 11.4996 16.36 11.4996C16.8886 11.9197 17.5751 12.0862 18.2375 11.9551C19.1444 11.7709 19.846 11.0501 20.0057 10.1386C20.1655 9.22711 19.7509 8.31072 18.9607 7.82901C18.1706 7.34731 17.166 7.39853 16.429 7.95812C16.36 8.00812 16.372 7.99962 16.126 7.99962C16.0764 7.99934 16.0362 7.95921 16.036 7.90962V4.99962H24.536C25.0883 4.99962 25.536 5.44733 25.536 5.99962ZM6.53597 4.99962H8.49097C9.06776 4.99879 9.53514 4.53141 9.53597 3.95462V3.67462C9.53184 3.43203 9.44744 3.19765 9.29597 3.00812C8.96234 2.57531 8.94853 1.97596 9.26187 1.52825C9.5752 1.08053 10.143 0.888252 10.6639 1.05348C11.1848 1.21872 11.538 1.70315 11.536 2.24962C11.536 2.95562 11.036 3.04962 11.036 3.67462V3.95462C11.0365 4.53153 11.5041 4.99907 12.081 4.99962H15.036V7.90962C15.0368 8.51127 15.5243 8.99879 16.126 8.99962H16.346C16.5969 8.9957 16.8395 8.90885 17.036 8.75262C17.5811 8.35779 18.3393 8.4555 18.7665 8.97562C19.1499 9.47056 19.108 10.1728 18.6684 10.6186C18.2289 11.0645 17.5273 11.1164 17.027 10.7401C16.7552 10.5386 16.415 10.4522 16.08 10.4996C15.5037 10.5004 15.0368 10.9674 15.036 11.5436V14.4996H12.08C12.0205 14.4996 12.036 14.4496 12.036 14.1756C12.456 13.647 12.6226 12.9605 12.4915 12.2981C12.3072 11.3912 11.5865 10.6896 10.675 10.5299C9.76346 10.3701 8.84707 10.7847 8.36536 11.5749C7.88366 12.365 7.93488 13.3696 8.49447 14.1066C8.54447 14.1756 8.53597 14.1636 8.53597 14.4096C8.53569 14.4592 8.49556 14.4993 8.44597 14.4996H5.53597V5.99962C5.53597 5.44733 5.98368 4.99962 6.53597 4.99962ZM1.80646 19.4741C2.23674 18.9493 3.00381 18.8559 3.54746 19.2621C3.8187 19.4618 4.15749 19.5471 4.49096 19.4996C5.06776 19.4988 5.53514 19.0314 5.53597 18.4546V15.4996H8.44597C9.04762 15.4988 9.53514 15.0113 9.53597 14.4096V14.1896C9.53597 13.5676 9.03597 13.4436 9.03597 12.7496C9.03444 12.2034 9.38776 11.7194 9.90848 11.5545C10.4292 11.3895 10.9967 11.5818 11.31 12.0293C11.6232 12.4767 11.6097 13.0758 11.2765 13.5086C11.075 13.7804 10.9886 14.1206 11.036 14.4556C11.0368 15.0319 11.5037 15.4988 12.08 15.4996H15.036C15.036 18.7136 15.0555 18.4996 14.992 18.4996C14.688 18.4996 14.7095 18.5101 14.659 18.4701C13.8811 17.8682 12.8023 17.8413 11.9954 18.4038C11.1885 18.9663 10.8405 19.9877 11.1361 20.9258C11.4317 21.8639 12.3024 22.5013 13.286 22.4996C13.806 22.4851 14.3088 22.3105 14.726 21.9996H14.946C14.9956 21.9999 15.0357 22.04 15.036 22.0896V24.9996H6.53597C5.98368 24.9996 5.53597 24.5519 5.53597 23.9996V22.0446C5.53514 21.4678 5.06776 21.0004 4.49096 20.9996H4.21096C3.96838 21.0038 3.73399 21.0882 3.54446 21.2396C3.04383 21.6147 2.34298 21.562 1.90411 21.1162C1.46524 20.6704 1.42352 19.9688 1.80646 19.4741Z" fill="#56CCF2"/>
<path d="M7.03671 7.00004C7.27517 6.99866 7.47946 6.82909 7.52473 6.59497C7.57 6.36085 7.44364 6.12734 7.22289 6.03717C7.00213 5.94701 6.74843 6.02528 6.61684 6.22414C6.48526 6.423 6.51241 6.68712 6.68171 6.85504C6.77759 6.94632 6.90435 6.9981 7.03671 7.00004Z" fill="#56CCF2"/>
<path d="M7.03674 11.5C7.31289 11.5 7.53674 11.2761 7.53674 11V8.5C7.53674 8.22386 7.31289 8 7.03674 8C6.7606 8 6.53674 8.22386 6.53674 8.5V11C6.53674 11.2761 6.7606 11.5 7.03674 11.5Z" fill="#56CCF2"/>
</g>
<defs>
<clipPath id="clip0">
<rect width="30" height="30" fill="white" transform="translate(0.536743)"/>
</clipPath>
</defs>
</svg>
