<svg width="24" height="36" viewBox="0 0 24 36" fill="none" xmlns="http://www.w3.org/2000/svg">
<path d="M8.89073 10.611H6.10285C5.91801 10.611 5.74073 10.6844 5.61002 10.8151C5.47931 10.9458 5.40588 11.1231 5.40588 11.3079V14.0958C5.40588 14.2807 5.47931 14.4579 5.61002 14.5886C5.74073 14.7193 5.91801 14.7928 6.10285 14.7928H8.89073C9.07558 14.7928 9.25286 14.7193 9.38356 14.5886C9.51427 14.4579 9.5877 14.2807 9.5877 14.0958V11.3079C9.5877 11.1231 9.51427 10.9458 9.38356 10.8151C9.25286 10.6844 9.07558 10.611 8.89073 10.611ZM8.19376 13.3988H6.79982V12.0049H8.19376V13.3988Z" fill="#D03839"/>
<path d="M6.79982 16.1868H5.40588V17.5807H6.79982V16.1868Z" fill="#D03839"/>
<path d="M9.58766 16.1868H8.19373V17.5807H9.58766V16.1868Z" fill="#D03839"/>
<path d="M6.79982 18.9746H5.40588V20.3685H6.79982V18.9746Z" fill="#D03839"/>
<path d="M9.58766 18.9746H8.19373V20.3685H9.58766V18.9746Z" fill="#D03839"/>
<path d="M21.4362 9.91403H12.3756V8.52009C12.3756 8.33524 12.3022 8.15796 12.1714 8.02726C12.0407 7.89655 11.8635 7.82312 11.6786 7.82312H3.31498C3.13013 7.82312 2.95285 7.89655 2.82215 8.02726C2.69144 8.15796 2.61801 8.33524 2.61801 8.52009V31.5201H1.22407C1.03922 31.5201 0.861944 31.5935 0.731237 31.7242C0.60053 31.8549 0.5271 32.0322 0.5271 32.2171V35.0049C0.5271 35.1898 0.60053 35.3671 0.731237 35.4978C0.861944 35.6285 1.03922 35.7019 1.22407 35.7019H13.7695C13.9544 35.7019 14.1316 35.6285 14.2624 35.4978C14.3931 35.3671 14.4665 35.1898 14.4665 35.0049V32.2171C14.4665 32.0322 14.3931 31.8549 14.2624 31.7242C14.1316 31.5935 13.9544 31.5201 13.7695 31.5201H12.3756V17.7515L18.1695 22.9669C18.585 23.3567 19.1367 23.5681 19.7063 23.5555C20.2759 23.543 20.8179 23.3076 21.2158 22.8998C21.6137 22.4921 21.8358 21.9445 21.8344 21.3748C21.833 20.8051 21.6082 20.2586 21.2083 19.8528L14.8756 14.0958H21.4362C21.9907 14.0958 22.5226 13.8756 22.9147 13.4834C23.3068 13.0913 23.5271 12.5595 23.5271 12.0049C23.5271 11.4504 23.3068 10.9186 22.9147 10.5264C22.5226 10.1343 21.9907 9.91403 21.4362 9.91403ZM4.01195 9.21706H10.9816V31.5201H4.01195V9.21706ZM13.0726 32.914V34.308H1.92104V32.914H13.0726ZM20.2465 20.8613C20.3782 21.0153 20.4506 21.2114 20.4506 21.414C20.4506 21.6167 20.3782 21.8127 20.2465 21.9667C20.0928 22.0993 19.8967 22.1722 19.6938 22.1722C19.4909 22.1722 19.2947 22.0993 19.1411 21.9667L19.1146 21.9416L12.3756 15.8766V14.0958H12.8028L20.2465 20.8613ZM21.4362 12.7019H12.3756V11.308H21.4362C21.621 11.308 21.7983 11.3814 21.929 11.5121C22.0597 11.6428 22.1332 11.8201 22.1332 12.0049C22.1332 12.1898 22.0597 12.3671 21.929 12.4978C21.7983 12.6285 21.621 12.7019 21.4362 12.7019Z" fill="#D03839"/>
<path d="M4.84833 4.61702L5.96348 5.45338C6.38508 4.93286 6.98826 4.59142 7.65154 4.49784C8.06146 4.50518 8.46496 4.60103 8.83439 4.77883C9.20382 4.95663 9.53046 5.21217 9.79193 5.52796L10.7774 4.54244C10.3786 4.08057 9.88264 3.71245 9.32506 3.46439C8.76748 3.21632 8.16201 3.09442 7.55187 3.10738C6.48626 3.23249 5.51388 3.77545 4.84833 4.61702Z" fill="#D03839"/>
<path d="M7.43963 1.40474C9.40578 1.29601 11.3552 2.21322 13.2767 4.13407L14.2623 3.14856C12.0438 0.929404 9.71105 -0.127203 7.34623 0.0121914C3.77078 0.221282 1.47078 3.08652 1.3739 3.20849L2.46675 4.07274C2.48696 4.04974 4.49354 1.57062 7.43963 1.40474Z" fill="#D03839"/>
</svg>
