<svg width="51" height="50" viewBox="0 0 51 50" fill="none" xmlns="http://www.w3.org/2000/svg">
<g clip-path="url(#clip0)">
<path d="M4.93042 30.9847H9.33334V26.5814H4.93042V30.9847ZM6.39793 28.0493H7.86583V29.5168H6.39793V28.0493Z" fill="#BCCBD7"/>
<path d="M50.5271 31.8652V26.4838H12.2687V24.7226H13.7366V19.3408H0.5271V24.7226H1.995V42.8245H0.5271V48.2059H13.7366V42.8245H12.2687V31.8652H50.5271ZM49.0592 27.9514V30.3977H43.8186L46.2035 27.9514H49.0592ZM44.1535 27.9514L41.7686 30.3977H36.8987L39.2837 27.9514H44.1535ZM37.234 27.9514L34.8487 30.3977H29.9808L32.3661 27.9514H37.234ZM30.3161 27.9514L27.9307 30.3977H23.0609L25.4462 27.9514H30.3161ZM23.3962 27.9514L21.0113 30.3977H16.1433L18.5283 27.9514H23.3962ZM16.4786 27.9514L14.0933 30.3977H12.2687V27.9514H16.4786ZM12.2687 46.7384H1.995V44.292H12.2687V46.7384ZM3.46251 42.8245V24.7226H10.8012V42.8245H3.46251ZM1.995 23.2547V20.8087H12.2687V23.2547H1.995Z" fill="#BCCBD7"/>
<path d="M44.7539 22.6188H46.2218V24.0867H44.7539V22.6188Z" fill="#BCCBD7"/>
<path d="M44.7539 16.7479H46.2218V18.2158H44.7539V16.7479Z" fill="#BCCBD7"/>
<path d="M44.7539 19.6833H46.2218V21.1512H44.7539V19.6833Z" fill="#BCCBD7"/>
<path d="M40.7424 19.6833H42.2099V21.1512H40.7424V19.6833Z" fill="#BCCBD7"/>
<path d="M40.7424 13.8125H42.2099V15.2804H40.7424V13.8125Z" fill="#BCCBD7"/>
<path d="M40.7424 16.7479H42.2099V18.2158H40.7424V16.7479Z" fill="#BCCBD7"/>
<path d="M7.76776 33.1862H9.23566V38.0785H7.76776V33.1862Z" fill="#BCCBD7"/>
<path d="M7.76776 39.5464H9.23566V41.0139H7.76776V39.5464Z" fill="#BCCBD7"/>
</g>
<defs>
<clipPath id="clip0">
<rect width="50" height="50" fill="white" transform="translate(0.5271)"/>
</clipPath>
</defs>
</svg>
