<svg width="32" height="31" viewBox="0 0 32 31" fill="none" xmlns="http://www.w3.org/2000/svg">
<g clip-path="url(#clip0)">
<path d="M2.85951 28.9333V2.06667C2.86016 1.49627 3.32392 1.03398 3.89615 1.03333H22.5556V3.61667C22.5565 4.47227 23.2522 5.1657 24.1105 5.16667H26.7021V22.2167H27.7387V4.65C27.7387 4.51295 27.6841 4.38153 27.5869 4.28465L23.4404 0.151319C23.3432 0.0544437 23.2114 0 23.0739 0H3.89615C2.75164 0.00129167 1.82417 0.925802 1.82288 2.06667V28.9333C1.82417 30.0742 2.75164 30.9987 3.89615 31H18.409V29.9667H3.89615C3.32392 29.966 2.86016 29.5037 2.85951 28.9333ZM23.5922 1.76396L25.9691 4.13333H24.1105C23.8244 4.13301 23.5925 3.90187 23.5922 3.61667V1.76396Z" fill="#1D68D9"/>
<path d="M3.89618 2.06665H4.93281V3.09998H3.89618V2.06665Z" fill="#1D68D9"/>
<path d="M5.96948 2.06665H7.00612V3.09998H5.96948V2.06665Z" fill="#1D68D9"/>
<path d="M8.04272 2.06665H9.07936V3.09998H8.04272V2.06665Z" fill="#1D68D9"/>
<path d="M3.89618 4.1333H21.519V5.16663H3.89618V4.1333Z" fill="#1D68D9"/>
<path d="M10.1159 11.884C10.1167 11.0439 9.57733 10.2979 8.77757 10.0329C8.64812 9.99012 8.56085 9.86941 8.56098 9.73346V9.73275C8.56052 9.66507 8.5832 9.59932 8.62525 9.54617C8.98613 9.10236 9.14285 8.52763 9.05707 7.96278C8.88985 6.83361 7.83605 6.05338 6.70326 6.22006C5.68542 6.36983 4.93165 7.24106 4.93275 8.26671C4.93373 8.74082 5.09978 9.19994 5.40254 9.56561C5.43695 9.61463 5.45405 9.67372 5.45107 9.73353C5.4512 9.86948 5.36393 9.99012 5.23454 10.033C4.43478 10.2979 3.89534 11.0439 3.89612 11.884V12.4C3.89612 12.6854 4.1282 12.9167 4.41444 12.9167H9.59761C9.88385 12.9167 10.1159 12.6854 10.1159 12.4V11.884ZM4.93275 11.8834C4.93262 11.4884 5.18634 11.1378 5.56238 11.0132C6.1153 10.83 6.48823 10.3143 6.48771 9.73346C6.49121 9.43373 6.39033 9.14207 6.20231 8.90815C6.05148 8.72829 5.969 8.50115 5.96939 8.26671C5.96971 7.69528 6.43471 7.23228 7.00797 7.2326C7.07211 7.23267 7.13606 7.23861 7.1991 7.25043C7.63001 7.33555 7.96213 7.67926 8.03126 8.11171C8.07408 8.3922 7.99647 8.67772 7.81745 8.89834C7.62749 9.13516 7.52408 9.42947 7.52434 9.73275V9.73333C7.52382 10.3141 7.89675 10.83 8.44973 11.0131C8.82577 11.1377 9.07949 11.4884 9.0793 11.8834H4.93275Z" fill="#1D68D9"/>
<path d="M10.116 19.6339C10.1168 18.7939 9.57739 18.0479 8.77763 17.7829C8.64818 17.7401 8.56091 17.6193 8.56104 17.4834V17.4827C8.56059 17.415 8.58326 17.3493 8.62531 17.2961C8.98619 16.8523 9.14291 16.2776 9.05713 15.7128C8.88991 14.5836 7.83611 13.8034 6.70332 13.9701C5.68548 14.1198 4.93178 14.991 4.93282 16.0166C4.93379 16.4908 5.09984 16.9499 5.40261 17.3157C5.43707 17.3647 5.45418 17.4238 5.45113 17.4836C5.45126 17.6195 5.36399 17.7402 5.23461 17.7831C4.43491 18.048 3.89553 18.7939 3.89618 19.6339V20.15C3.89618 20.4353 4.12826 20.6666 4.4145 20.6666H9.59767C9.88391 20.6666 10.116 20.4353 10.116 20.15V19.6339ZM4.93282 19.6333C4.93269 19.2383 5.1864 18.8877 5.56244 18.7632C6.11536 18.58 6.48829 18.0642 6.48777 17.4834C6.49133 17.1837 6.39045 16.892 6.20237 16.6582C6.05154 16.4782 5.96906 16.2511 5.96945 16.0166C5.96971 15.4453 6.43464 14.9823 7.00783 14.9826C7.07204 14.9826 7.13605 14.9886 7.19916 15.0004C7.63008 15.0855 7.96219 15.4292 8.03132 15.8616C8.07414 16.1421 7.99653 16.4277 7.81751 16.6482C7.62755 16.8851 7.52414 17.1794 7.5244 17.4827V17.4833C7.52388 18.0641 7.89681 18.5799 8.44979 18.7631C8.82583 18.8876 9.07955 19.2383 9.07936 19.6333H4.93282Z" fill="#1D68D9"/>
<path d="M14.9326 7.38464L13.7599 8.5536C12.7726 7.97293 11.5 8.30011 10.9175 9.2843C10.335 10.2685 10.6632 11.537 11.6505 12.1177C12.6378 12.6984 13.9104 12.3712 14.493 11.387C14.8768 10.7383 14.8768 9.93297 14.493 9.2843L15.6657 8.11534L14.9326 7.38464ZM12.7076 11.3667C12.1351 11.369 11.669 10.9082 11.6667 10.3375C11.6644 9.76686 12.1267 9.30232 12.6991 9.29999C12.7923 9.2996 12.885 9.31175 12.9749 9.33609L12.341 9.96798L13.0741 10.6987L13.708 10.0668C13.8577 10.6155 13.5329 11.1813 12.9825 11.3306C12.8929 11.3548 12.8004 11.367 12.7076 11.3667Z" fill="#1D68D9"/>
<path d="M20.1158 7.38464L18.9431 8.5536C17.9558 7.97293 16.6832 8.30011 16.1006 9.2843C15.5181 10.2685 15.8463 11.537 16.8337 12.1177C17.821 12.6984 19.0936 12.3712 19.6761 11.387C20.06 10.7383 20.06 9.93297 19.6761 9.2843L20.8488 8.11534L20.1158 7.38464ZM17.8907 11.3667C17.3182 11.369 16.8522 10.9082 16.8499 10.3375C16.8475 9.76686 17.3098 9.30232 17.8823 9.29999C17.9755 9.2996 18.0682 9.31175 18.1581 9.33609L17.5242 9.96798L18.2572 10.6987L18.8911 10.0668C19.0409 10.6155 18.7161 11.1813 18.1656 11.3306C18.076 11.3548 17.9836 11.367 17.8907 11.3667Z" fill="#1D68D9"/>
<path d="M25.299 7.38464L24.1263 8.5536C23.1389 7.97293 21.8663 8.30011 21.2838 9.2843C20.7013 10.2685 21.0295 11.537 22.0168 12.1177C23.0042 12.6984 24.2768 12.3712 24.8593 11.387C25.2432 10.7383 25.2432 9.93297 24.8593 9.2843L26.032 8.11534L25.299 7.38464ZM23.0739 11.3667C22.5014 11.369 22.0354 10.9082 22.033 10.3375C22.0307 9.76686 22.493 9.30232 23.0655 9.29999C23.1586 9.2996 23.2514 9.31175 23.3413 9.33609L22.7074 9.96798L23.4404 10.6987L24.0743 10.0668C24.224 10.6155 23.8992 11.1813 23.3488 11.3306C23.2592 11.3548 23.1667 11.367 23.0739 11.3667Z" fill="#1D68D9"/>
<path d="M14.9326 15.1346L13.7599 16.3036C12.7726 15.7229 11.5 16.0501 10.9175 17.0343C10.335 18.0185 10.6632 19.287 11.6505 19.8677C12.6378 20.4484 13.9104 20.1212 14.493 19.137C14.8768 18.4883 14.8768 17.683 14.493 17.0343L15.6657 15.8653L14.9326 15.1346ZM12.7076 19.1167C12.1351 19.119 11.669 18.6582 11.6667 18.0875C11.6644 17.5169 12.1267 17.0523 12.6991 17.05C12.7923 17.0496 12.885 17.0617 12.9749 17.0861L12.341 17.718L13.0741 18.4487L13.708 17.8168C13.8577 18.3655 13.5329 18.9313 12.9825 19.0806C12.8929 19.1048 12.8004 19.117 12.7076 19.1167Z" fill="#1D68D9"/>
<path d="M20.1158 15.1346L18.9431 16.3036C17.9558 15.7229 16.6832 16.0501 16.1006 17.0343C15.5181 18.0185 15.8463 19.287 16.8337 19.8677C17.821 20.4484 19.0936 20.1212 19.6761 19.137C20.06 18.4883 20.06 17.683 19.6761 17.0343L20.8488 15.8653L20.1158 15.1346ZM17.8907 19.1167C17.3182 19.119 16.8522 18.6582 16.8499 18.0875C16.8475 17.5169 17.3098 17.0523 17.8823 17.05C17.9755 17.0496 18.0682 17.0617 18.1581 17.0861L17.5242 17.718L18.2572 18.4487L18.8911 17.8168C19.0409 18.3655 18.7161 18.9313 18.1656 19.0806C18.076 19.1048 17.9836 19.117 17.8907 19.1167Z" fill="#1D68D9"/>
<path d="M24.619 19.4612C25.3825 18.6106 25.3096 17.3041 24.4562 16.543C23.6029 15.782 22.2922 15.8547 21.5287 16.7053C21.1886 17.0843 21.0006 17.5748 21.0006 18.0833H22.0372C22.0372 17.5126 22.5014 17.05 23.0739 17.05C23.6465 17.05 24.1106 17.5127 24.1105 18.0834C24.1105 18.3376 24.0166 18.5827 23.8466 18.7721L24.619 19.4612Z" fill="#1D68D9"/>
<path d="M5.23454 25.5329C4.43478 25.7978 3.89534 26.5438 3.89612 27.3839V27.9C3.89612 28.1853 4.1282 28.4166 4.41444 28.4166H9.59761C9.88385 28.4166 10.1159 28.1853 10.1159 27.9V27.3839C10.1167 26.5439 9.57733 25.7979 8.77757 25.5329C8.64812 25.4901 8.56085 25.3693 8.56098 25.2334V25.2327C8.56052 25.165 8.5832 25.0993 8.62525 25.0461C8.98613 24.6023 9.14285 24.0276 9.05707 23.4628C8.88985 22.3336 7.83605 21.5534 6.70326 21.7201C5.68542 21.8698 4.93172 22.741 4.93275 23.7666C4.93373 24.2408 5.09978 24.6999 5.40254 25.0657C5.43701 25.1147 5.45412 25.1738 5.45107 25.2336C5.45114 25.3694 5.36386 25.4901 5.23454 25.5329ZM5.56238 26.5132C6.1153 26.33 6.48823 25.8142 6.48771 25.2334C6.49127 24.9337 6.39039 24.642 6.20231 24.4082C6.05148 24.2282 5.969 24.0011 5.96939 23.7666C5.96965 23.1953 6.43458 22.7323 7.00777 22.7326C7.07198 22.7326 7.13599 22.7386 7.1991 22.7504C7.63001 22.8355 7.96213 23.1792 8.03126 23.6116C8.07408 23.8921 7.99647 24.1777 7.81745 24.3982C7.62749 24.6351 7.52408 24.9294 7.52434 25.2327V25.2333C7.52382 25.8141 7.89675 26.3299 8.44973 26.5131C8.82577 26.6376 9.07949 26.9883 9.0793 27.3833H4.93275C4.93262 26.9883 5.18634 26.6377 5.56238 26.5132Z" fill="#1D68D9"/>
<path d="M12.7076 23.7667C11.5626 23.7667 10.6343 24.692 10.6343 25.8334C10.6343 26.9748 11.5626 27.9001 12.7076 27.9001C13.8526 27.9001 14.7809 26.9748 14.7809 25.8334C14.7796 24.6925 13.8521 23.768 12.7076 23.7667ZM12.7076 26.8667C12.1351 26.8667 11.671 26.4041 11.671 25.8334C11.671 25.2627 12.1351 24.8001 12.7076 24.8001C13.2802 24.8001 13.7442 25.2627 13.7442 25.8334C13.7436 26.4038 13.2798 26.8661 12.7076 26.8667Z" fill="#1D68D9"/>
<path d="M17.8908 24.8C18.33 24.7998 18.7218 25.0756 18.8687 25.4883L19.8465 25.145C19.4651 24.0683 18.2804 23.5037 17.2002 23.8837C16.1201 24.2639 15.5536 25.4448 15.9349 26.5216L16.9127 26.1785C16.7227 25.6389 17.0074 25.0479 17.5487 24.8585C17.6587 24.8201 17.7743 24.8003 17.8908 24.8Z" fill="#1D68D9"/>
<path d="M29.0327 23.2709C28.5804 23.1962 28.1181 23.3235 27.7684 23.619C27.7582 23.6276 27.7481 23.6363 27.7382 23.6452C27.1485 23.1182 26.2551 23.1184 25.6655 23.6457C25.2425 23.2676 24.6462 23.1498 24.1105 23.3386V20.722C24.1105 19.9387 23.5527 19.2576 22.8129 19.1376C21.9655 18.9963 21.1637 19.5665 21.0219 20.4112C21.0078 20.4956 21.0006 20.5812 21.0006 20.6667V26.9876L19.6248 26.1647C19.2049 25.9121 18.6842 25.8921 18.2461 26.1119L18.1648 26.1524C17.4566 26.5053 17.1694 27.3635 17.5234 28.0695C17.628 28.2781 17.7823 28.4581 17.9727 28.5937L21.2177 30.9038C21.3056 30.9664 21.4109 31.0001 21.5189 31.0001H29.812C30.0983 31.0001 30.3303 30.7687 30.3303 30.4834V24.8553C30.3303 24.0721 29.7725 23.3909 29.0327 23.2709ZM29.2937 29.9667H21.685L18.5751 27.7525C18.3967 27.6255 18.3555 27.3783 18.4829 27.2005C18.5205 27.148 18.5704 27.1055 18.6284 27.0766L18.7096 27.0362C18.831 26.9754 18.9751 26.9808 19.0914 27.0508L21.2521 28.3431C21.4976 28.49 21.8159 28.4107 21.9633 28.1661C22.0117 28.0857 22.0373 27.9938 22.0373 27.9001V20.6667C22.0375 20.3809 22.2701 20.1495 22.5567 20.1497C22.5867 20.1497 22.6167 20.1523 22.6463 20.1575C22.886 20.1962 23.0739 20.4444 23.0739 20.722V24.8001C23.0739 25.0854 23.306 25.3167 23.5922 25.3167C23.8785 25.3167 24.1105 25.0854 24.1105 24.8001C24.1105 24.5147 24.3426 24.2834 24.6288 24.2834C24.9151 24.2834 25.1472 24.5147 25.1472 24.8001C25.1472 25.0854 25.3792 25.3167 25.6655 25.3167C25.9517 25.3167 26.1838 25.0854 26.1838 24.8001C26.1838 24.5147 26.4159 24.2834 26.7021 24.2834C26.9884 24.2834 27.2204 24.5147 27.2204 24.8001C27.2204 25.0854 27.4525 25.3167 27.7388 25.3167C28.025 25.3167 28.2571 25.0854 28.2571 24.8001C28.2573 24.5143 28.4899 24.2828 28.7766 24.283C28.8066 24.283 28.8366 24.2857 28.8661 24.2908C29.1058 24.3296 29.2937 24.5777 29.2937 24.8553V29.9667Z" fill="#1D68D9"/>
</g>
<defs>
<clipPath id="clip0">
<rect width="31.099" height="31" fill="white" transform="translate(0.5271)"/>
</clipPath>
</defs>
</svg>
