<svg width="29" height="28" viewBox="0 0 29 28" fill="none" xmlns="http://www.w3.org/2000/svg">
<g clip-path="url(#clip0)">
<path d="M14.5271 9.0323C16.2703 9.0323 17.6884 7.61417 17.6884 5.87101C17.6884 4.12784 16.2703 2.70972 14.5271 2.70972C12.784 2.70972 11.3658 4.12784 11.3658 5.87101C11.3658 7.61417 12.784 9.0323 14.5271 9.0323ZM14.5271 3.61294C15.7722 3.61294 16.7852 4.62599 16.7852 5.87101C16.7852 6.96123 16.0079 7.8735 14.9787 8.08343V6.32262H14.0755V8.08343C13.0464 7.8735 12.2691 6.96167 12.2691 5.87101C12.2691 4.62599 13.2821 3.61294 14.5271 3.61294Z" fill="#6FCF97"/>
<path d="M14.0755 4.51611H14.9787V5.41934H14.0755V4.51611Z" fill="#6FCF97"/>
<path d="M26.7586 21.374L24.4626 20.8637V20.2037C25.2805 19.6317 25.8174 18.6846 25.8174 17.6133V16.7101C25.8174 15.1209 24.6375 13.8053 23.1077 13.585V11.4367L18.9343 9.76701L19.5789 9.12267L18.9339 8.15527C19.064 7.90455 19.1724 7.64302 19.2578 7.37311L20.3981 7.14444V4.5975L19.2582 4.36927C19.1729 4.09936 19.064 3.83783 18.9343 3.5871L19.5793 2.61971L17.7788 0.81921L16.8114 1.46421C16.5607 1.33411 16.2992 1.22562 16.0292 1.14028L15.8006 0H13.2536L13.0254 1.13984C12.7555 1.22518 12.494 1.33411 12.2432 1.46377L11.2758 0.818769L9.47534 2.61927L10.1203 3.58666C9.99024 3.83739 9.88175 4.09892 9.79641 4.36883L8.65613 4.5975V7.14444L9.79597 7.37267C9.88131 7.64258 9.99024 7.90411 10.1199 8.15483L9.4749 9.12223L10.1195 9.76657L5.94645 11.4363V13.5846C4.41675 13.8048 3.23678 15.1204 3.23678 16.7097V17.6129C3.23678 18.6846 3.77373 19.6317 4.59162 20.2033V20.8631L2.29562 21.3736C1.25413 21.6051 0.5271 22.5116 0.5271 23.5778V28H28.5271V23.5778C28.5271 22.5116 27.8001 21.6051 26.7586 21.374ZM23.5594 21.1017C23.4473 21.2745 23.1362 21.6774 22.6561 21.6774C22.1761 21.6774 21.8649 21.2741 21.7529 21.1017V20.6414C22.0391 20.7268 22.3423 20.7742 22.6561 20.7742C22.9699 20.7742 23.2731 20.7268 23.5594 20.641V21.1017ZM24.9142 16.7097V17.6129C24.9142 18.8579 23.9012 19.871 22.6561 19.871C21.4111 19.871 20.3981 18.8579 20.3981 17.6129V16.7097C20.3981 15.4647 21.4111 14.4516 22.6561 14.4516C23.9012 14.4516 24.9142 15.4647 24.9142 16.7097ZM22.2045 12.0476V13.5846C20.6748 13.8048 19.4948 15.1204 19.4948 16.7097V17.6129C19.4948 18.6846 20.0318 19.6317 20.8497 20.2033V20.8631L18.5916 21.365L16.3336 20.8631V20.2033C17.1514 19.6313 17.6884 18.6842 17.6884 17.6129V16.7097C17.6884 15.1204 16.5084 13.8048 14.9787 13.5846V11.7419H15.8006L16.0288 10.6021C16.2987 10.5168 16.5602 10.4078 16.811 10.2782L17.7784 10.9232L18.2395 10.4621L22.2045 12.0476ZM19.4948 27.0968H9.55936V23.5778C9.55936 22.9379 9.99553 22.3941 10.6203 22.2549L12.9654 21.7339C13.2236 22.0761 13.7372 22.5806 14.5271 22.5806C15.317 22.5806 15.8306 22.0761 16.0888 21.7343L18.4339 22.2554C19.0587 22.3941 19.4948 22.9383 19.4948 23.5778V27.0968ZM14.5271 14.4516C15.7721 14.4516 16.7852 15.4647 16.7852 16.7097V17.6129C16.7852 18.8579 15.7721 19.871 14.5271 19.871C13.2821 19.871 12.269 18.8579 12.269 17.6129V16.7097C12.269 15.4647 13.2821 14.4516 14.5271 14.4516ZM14.5271 20.7742C14.8409 20.7742 15.1441 20.7268 15.4303 20.641V21.1012C15.3183 21.2745 15.0072 21.6774 14.5271 21.6774C14.047 21.6774 13.7359 21.2741 13.6239 21.1017V20.6414C13.9101 20.7268 14.2133 20.7742 14.5271 20.7742ZM9.55936 6.40395V5.33799L10.5221 5.14526L10.5922 4.86983C10.6884 4.49121 10.8379 4.13045 11.0361 3.79725L11.1819 3.55248L10.637 2.73504L11.3907 1.98132L12.2082 2.52643L12.4529 2.38045C12.7861 2.18221 13.1469 2.03226 13.5255 1.93655L13.8009 1.86643L13.9941 0.903226H15.0601L15.2528 1.86599L15.5282 1.93611C15.9069 2.03226 16.2676 2.18177 16.6008 2.38001L16.8456 2.52577L17.663 1.98088L18.4167 2.7346L17.8716 3.55204L18.0176 3.79681C18.2159 4.13001 18.3658 4.49077 18.4615 4.86939L18.5316 5.14481L19.4948 5.33799V6.40395L18.5321 6.59668L18.462 6.8721C18.3658 7.25072 18.2163 7.61149 18.0181 7.94468L17.8723 8.18945L18.4172 9.0069L17.6635 9.76062L16.846 9.2155L16.6013 9.36149C16.2681 9.55973 15.9073 9.70968 15.5287 9.80538L15.2533 9.8755L15.0601 10.8387H13.9941L13.8014 9.87595L13.526 9.80582C13.1473 9.70968 12.7866 9.56017 12.4534 9.36193L12.2086 9.21617L11.3912 9.76106L10.6375 9.00734L11.1826 8.18989L11.0366 7.94512C10.8383 7.61193 10.6884 7.25117 10.5927 6.87254L10.5226 6.59712L9.55936 6.40395ZM10.8147 10.4616L11.2758 10.9227L12.2432 10.2777C12.494 10.4078 12.7555 10.5163 13.0254 10.6017L13.2536 11.7419H14.0755V13.5846C12.5458 13.8048 11.3658 15.1204 11.3658 16.7097V17.6129C11.3658 18.6846 11.9028 19.6317 12.7206 20.2033V20.8631L10.4626 21.365L8.20452 20.8631V20.2033C9.02241 19.6313 9.55936 18.6842 9.55936 17.6129V16.7097C9.55936 15.1204 8.37939 13.8048 6.84968 13.5846V12.0476L10.8147 10.4616ZM4.14 17.6129V16.7097C4.14 15.4647 5.15304 14.4516 6.39807 14.4516C7.64309 14.4516 8.65613 15.4647 8.65613 16.7097V17.6129C8.65613 18.8579 7.64309 19.871 6.39807 19.871C5.15304 19.871 4.14 18.8579 4.14 17.6129ZM6.39807 20.7742C6.71186 20.7742 7.01507 20.7268 7.30129 20.641V21.1012C7.18927 21.2745 6.87813 21.6774 6.39807 21.6774C5.91713 21.6774 5.60554 21.2728 5.49484 21.1017V20.641C5.78107 20.7268 6.08428 20.7742 6.39807 20.7742ZM1.43033 23.5778C1.43033 22.9379 1.8665 22.3941 2.49122 22.2549L4.83639 21.7339C5.09461 22.0761 5.60819 22.5806 6.39807 22.5806C7.18795 22.5806 7.70153 22.0761 7.95975 21.7343L9.27842 22.0274C8.89186 22.4342 8.65613 22.978 8.65613 23.5778V27.0968H1.43033V23.5778ZM27.6239 27.0968H20.3981V23.5778C20.3981 22.978 20.1623 22.4338 19.7758 22.0269L21.0944 21.7339C21.3527 22.0761 21.8662 22.5806 22.6561 22.5806C23.446 22.5806 23.9596 22.0761 24.2178 21.7343L26.563 22.2554C27.1877 22.3941 27.6239 22.9383 27.6239 23.5778V27.0968Z" fill="#6FCF97"/>
<path d="M22.2045 3.16125H23.1078V4.06448H22.2045V3.16125Z" fill="#6FCF97"/>
<path d="M22.2045 5.87097H23.1078V6.7742H22.2045V5.87097Z" fill="#6FCF97"/>
<path d="M22.2045 8.58069H23.1078V9.48391H22.2045V8.58069Z" fill="#6FCF97"/>
<path d="M24.011 5.87097H24.9142V6.7742H24.011V5.87097Z" fill="#6FCF97"/>
<path d="M24.011 8.58069H24.9142V9.48391H24.011V8.58069Z" fill="#6FCF97"/>
<path d="M24.011 11.2903H24.9142V12.1935H24.011V11.2903Z" fill="#6FCF97"/>
<path d="M5.94647 3.16125H6.8497V4.06448H5.94647V3.16125Z" fill="#6FCF97"/>
<path d="M5.94647 5.87097H6.8497V6.7742H5.94647V5.87097Z" fill="#6FCF97"/>
<path d="M5.94647 8.58069H6.8497V9.48391H5.94647V8.58069Z" fill="#6FCF97"/>
<path d="M4.14001 5.87097H5.04324V6.7742H4.14001V5.87097Z" fill="#6FCF97"/>
<path d="M4.14001 8.58069H5.04324V9.48391H4.14001V8.58069Z" fill="#6FCF97"/>
<path d="M4.14001 11.2903H5.04324V12.1935H4.14001V11.2903Z" fill="#6FCF97"/>
</g>
<defs>
<clipPath id="clip0">
<rect width="28" height="28" fill="white" transform="translate(0.5271)"/>
</clipPath>
</defs>
</svg>
