<svg width="33" height="32" viewBox="0 0 33 32" fill="none" xmlns="http://www.w3.org/2000/svg">
<g clip-path="url(#clip0)">
<path d="M32.0943 24H28.349V16C28.349 15.7054 28.1095 15.4666 27.814 15.4666H26.2089V7.46663C26.2089 7.1721 25.9693 6.9333 25.6739 6.9333H18.7184V5.3333C18.7184 5.03877 18.4788 4.79997 18.1833 4.79997H9.62273C9.32726 4.79997 9.08769 5.03877 9.08769 5.3333V12.2666H8.01762V4.5333C8.01762 3.20783 6.93965 2.1333 5.60995 2.1333C4.28025 2.1333 3.20228 3.20783 3.20228 4.5333V6.39997C3.20228 6.6945 3.44184 6.9333 3.73732 6.9333C4.03279 6.9333 4.27236 6.6945 4.27236 6.39997V4.5333C4.27236 3.7969 4.8712 3.19997 5.60995 3.19997C6.3487 3.19997 6.94754 3.7969 6.94754 4.5333V12.2666H2.13221C1.83673 12.2666 1.59717 12.5054 1.59717 12.8C1.59717 13.0945 1.83673 13.3333 2.13221 13.3333H6.94754V24H6.41251C6.11703 24 5.87747 24.2388 5.87747 24.5333C5.87747 24.8278 6.11703 25.0666 6.41251 25.0666H32.0943C32.3898 25.0666 32.6293 24.8278 32.6293 24.5333C32.6293 24.2388 32.3898 24 32.0943 24ZM9.08769 24H8.01762V13.3333H9.08769V24ZM12.833 5.86663H14.9731V9.59997H12.833V5.86663ZM17.6483 24H10.1578V13.3333H11.2278C11.5233 13.3333 11.7629 13.0945 11.7629 12.8C11.7629 12.5054 11.5233 12.2666 11.2278 12.2666H10.1578V5.86663H11.7629V10.1333C11.7629 10.4278 12.0024 10.6666 12.2979 10.6666H15.5081C15.8036 10.6666 16.0432 10.4278 16.0432 10.1333V5.86663H17.6483V24ZM21.3936 7.99997H22.4636V10.1333H21.3936V7.99997ZM18.7184 7.99997H20.3235V10.6666C20.3235 10.9612 20.563 11.2 20.8585 11.2H22.9987C23.2941 11.2 23.5337 10.9612 23.5337 10.6666V7.99997H25.1388V15.4666H18.7184V7.99997ZM24.0687 16.5333V18.6666H21.9286V16.5333H24.0687ZM27.279 24H18.7184V16.5333H20.8585V19.2C20.8585 19.4945 21.0981 19.7333 21.3936 19.7333H24.6038C24.8993 19.7333 25.1388 19.4945 25.1388 19.2V16.5333H27.279V24Z" fill="#BCCBD7"/>
<path d="M9.62275 25.6C8.44079 25.6 7.4826 26.5551 7.4826 27.7333C7.4826 28.9115 8.44079 29.8666 9.62275 29.8666C10.8047 29.8666 11.7629 28.9115 11.7629 27.7333C11.7629 26.5551 10.8047 25.6 9.62275 25.6ZM9.62275 28.8C9.03174 28.8 8.55268 28.3224 8.55268 27.7333C8.55268 27.1442 9.03174 26.6666 9.62275 26.6666C10.2138 26.6666 10.6928 27.1442 10.6928 27.7333C10.6928 28.3224 10.2138 28.8 9.62275 28.8Z" fill="#BCCBD7"/>
<path d="M28.884 25.6C27.7021 25.6 26.7439 26.5551 26.7439 27.7333C26.7439 28.9115 27.7021 29.8666 28.884 29.8666C30.066 29.8666 31.0242 28.9115 31.0242 27.7333C31.0242 26.5551 30.066 25.6 28.884 25.6ZM28.884 28.8C28.293 28.8 27.814 28.3224 27.814 27.7333C27.814 27.1442 28.293 26.6666 28.884 26.6666C29.4751 26.6666 29.9541 27.1442 29.9541 27.7333C29.9541 28.3224 29.4751 28.8 28.884 28.8Z" fill="#BCCBD7"/>
<path d="M4.8074 10.1333H1.06214C0.766663 10.1333 0.5271 10.3721 0.5271 10.6666C0.5271 10.9612 0.766663 11.2 1.06214 11.2H4.8074C5.10287 11.2 5.34244 10.9612 5.34244 10.6666C5.34244 10.3721 5.10287 10.1333 4.8074 10.1333Z" fill="#BCCBD7"/>
</g>
<defs>
<clipPath id="clip0">
<rect width="32.1022" height="32" fill="white" transform="translate(0.5271)"/>
</clipPath>
</defs>
</svg>
